<svg width="732" height="630" viewBox="0 0 732 630" fill="none" xmlns="http://www.w3.org/2000/svg">
<g clip-path="url(#clip0_34_2)">
<path d="M304.106 546.981L312.09 520.976C302.483 510.402 290.44 502.334 277.006 497.47C290.131 519.214 277.413 547.578 282.713 572.416C284.425 580.15 287.856 587.4 292.751 593.628C297.646 599.856 303.88 604.903 310.99 608.394L323.107 623.408C329.459 612.309 333.33 599.966 334.453 587.228C335.575 574.489 333.923 561.659 329.609 549.621C327.123 542.892 323.798 536.502 319.715 530.603C312.515 539.068 304.106 546.981 304.106 546.981Z" fill="#F2F2F2"/>
<path d="M260.2 550.303L255.749 523.467C242.435 518.288 228.057 516.437 213.865 518.075C235.309 531.683 236.576 562.742 252.397 582.61C257.379 588.769 263.683 593.727 270.841 597.119C278 600.51 285.83 602.247 293.751 602.201L311.293 610.234C312.028 597.468 309.988 584.694 305.312 572.792C300.635 560.89 293.434 550.143 284.205 541.292C278.978 536.378 273.153 532.142 266.867 528.684C264.198 539.471 260.2 550.303 260.2 550.303Z" fill="#F2F2F2"/>
<path d="M521.537 616.734L509.237 616.733L503.386 569.293L521.539 569.294L521.537 616.734Z" fill="#FFB6B6"/>
<path d="M524.673 628.656L485.015 628.655V628.153C485.016 624.059 486.642 620.133 489.537 617.238C492.431 614.344 496.357 612.717 500.451 612.717H500.452L507.696 607.221L521.212 612.718L524.674 612.718L524.673 628.656Z" fill="#2F2E41"/>
<path d="M720.217 571.872L711.831 580.869L673.137 552.804L685.514 539.526L720.217 571.872Z" fill="#FFB6B6"/>
<path d="M731.077 577.706L704.037 606.716L703.67 606.374C700.675 603.583 698.912 599.716 698.768 595.625C698.624 591.534 700.111 587.553 702.902 584.558L703.822 575.511L717.058 569.371L719.418 566.839L731.077 577.706Z" fill="#2F2E41"/>
<path d="M702.018 545.21L689.018 572.4L609.189 519.545L597.575 503.721L559.497 451.839L544.018 476.4L533.247 502.075C529.737 504.364 526.78 507.405 524.588 510.977C522.396 514.549 521.025 518.563 520.573 522.729L520.08 527.274L526.886 588.457L501.018 596.4L486.161 514.21L491.018 496.4L496.018 471.4L521.192 392.4H588.556L627.193 474.642L630.018 491.4L640.973 503.972L702.018 545.21Z" fill="#2F2E41"/>
<path d="M562.022 263.148L573.362 271.783L587.038 275.986C587.038 275.986 592.692 355.514 597.786 360.608C602.88 365.703 598.286 365.84 599.309 372.457C600.333 379.075 602.821 392.641 602.821 392.641C568.434 410.844 538.789 411.332 514.976 390.032C514.672 388.714 514.826 387.332 515.415 386.115C516.003 384.897 516.99 383.917 518.212 383.337C522.644 380.986 514.127 370.01 517.749 368.175C521.371 366.339 516.276 350.42 516.276 350.42L519.618 317.204L516.978 311.894L523.421 279.406L534.601 275.323L539.067 264.563L562.022 263.148Z" fill="#3F3D56"/>
<path d="M569.126 404.497C569.075 403.06 569.34 401.631 569.901 400.308C570.463 398.985 571.308 397.801 572.376 396.84C573.445 395.879 574.711 395.164 576.086 394.745C577.46 394.326 578.91 394.214 580.333 394.416L596.315 363.353L605.219 379.173L588.677 406.246C588.179 408.614 586.83 410.716 584.885 412.156C582.94 413.595 580.535 414.271 578.125 414.055C575.715 413.84 573.467 412.748 571.809 410.986C570.15 409.224 569.196 406.915 569.126 404.497Z" fill="#FFB6B6"/>
<path d="M596.04 396.898L630.319 343.77L630.205 343.526C630.076 343.246 622.314 326.481 614.792 311.126C613.634 308.761 612.482 306.43 611.363 304.198C610.881 303.234 610.406 302.291 609.937 301.368C606.778 295.14 604.018 289.992 602.371 287.547C598.727 282.019 593.301 277.903 586.996 275.884L586.837 275.843L586.686 275.906C583.601 277.207 581.052 279.521 579.46 282.466C577.867 285.41 577.325 288.81 577.923 292.103C580.896 307.991 587.521 322.97 597.276 335.858L602.833 343.183L583.521 385.168L596.04 396.898Z" fill="#3F3D56"/>
<path d="M478.167 193.252C479.111 194.336 479.805 195.613 480.202 196.994C480.599 198.376 480.688 199.827 480.463 201.247C480.238 202.666 479.705 204.019 478.901 205.21C478.096 206.401 477.041 207.401 475.808 208.14L482.954 242.335L466.075 235.652L461.877 204.205C460.773 202.052 460.497 199.568 461.102 197.226C461.706 194.883 463.149 192.843 465.157 191.493C467.165 190.143 469.598 189.576 471.996 189.9C474.394 190.225 476.589 191.417 478.167 193.252Z" fill="#FFB6B6"/>
<path d="M462.044 216.103L468.869 278.96L469.111 279.078C469.31 279.176 477.958 283.418 488.572 288.469C490.363 289.321 490.106 293.012 491.978 293.894C493.267 294.502 496.671 292.297 497.974 292.906C509.576 298.332 521.308 303.608 525.984 305.037C532.296 307.037 539.102 306.818 545.272 304.416L545.421 304.348L545.499 304.204C547.076 301.25 547.599 297.848 546.982 294.558C546.365 291.267 544.646 288.285 542.107 286.103C529.793 275.633 515.214 268.169 499.52 264.299L490.591 262.108L479.155 217.332L462.044 216.103Z" fill="#3F3D56"/>
<path d="M549.931 259.587C562.319 259.587 572.362 249.544 572.362 237.156C572.362 224.768 562.319 214.725 549.931 214.725C537.543 214.725 527.5 224.768 527.5 237.156C527.5 249.544 537.543 259.587 549.931 259.587Z" fill="#FFB6B6"/>
<path d="M527.661 222.125C529.506 216.759 538.688 213.036 553.575 212.519C568.462 212.001 572.237 229.545 572.237 229.545C582.175 237.606 561.626 259.19 560.631 258.412L561.078 254.357C561.819 247.64 564.964 242.4 560.964 235.4L557.123 235.444C552.162 236.398 547.202 237.352 542.241 238.305L548.114 233.134L547.948 232.878C545.45 234.179 542.731 235.005 539.932 235.312C536.775 235.498 533.324 234.242 531.812 231.465C531.409 230.701 531.162 229.865 531.087 229.004C526.83 230.705 524.884 235.953 524.884 235.953C524.884 235.953 525.816 227.492 527.661 222.125Z" fill="#2F2E41"/>
<path d="M90.3734 223.471C90.0691 223.085 89.7414 222.718 89.3921 222.372C89.4774 222.255 89.5628 222.127 89.6482 222.01L90.3734 223.471Z" fill="#2F2E41"/>
<path d="M94.7359 313.687C91.0666 320.204 83.7389 323.841 76.4751 325.622C68.3163 327.759 59.7247 327.593 51.6546 325.142C50.6307 324.812 49.6067 324.428 48.6147 324.001C49.0916 322.734 49.4696 321.433 49.7453 320.108C50.1166 318.315 50.3025 316.488 50.3 314.657C49.4918 316.234 48.4448 317.677 47.1961 318.935C46.2328 319.947 45.1387 320.825 43.9429 321.548C40.2335 319.297 37.0217 316.313 34.5032 312.78C34.6631 312.385 34.8232 311.991 34.9725 311.596C35.7471 309.535 36.3604 307.417 36.8071 305.26C37.4131 302.345 37.717 299.374 37.7138 296.397C36.3986 298.962 34.693 301.309 32.6579 303.351C32.0477 304.004 31.3995 304.62 30.7167 305.196C29.6591 301.985 29.2503 298.595 29.514 295.224C29.7777 291.853 30.7085 288.568 32.2525 285.56C36.4764 277.752 44.6682 273.112 51.9639 268.067C59.2703 263.022 66.5768 256.195 67.1954 247.332C67.6114 241.348 64.8382 235.353 65.9475 229.465C66.414 226.983 67.553 224.675 69.2403 222.795C70.9276 220.915 73.0985 219.534 75.5166 218.802C77.9347 218.071 80.5071 218.017 82.9538 218.646C85.4004 219.276 87.6273 220.565 89.392 222.372C85.2535 228.239 81.1363 234.308 79.4617 241.284C77.7551 248.387 79.1524 256.718 84.7522 261.422C86.6721 263.043 89.0294 264.195 90.512 266.222C92.4853 268.909 92.496 272.493 92.8159 275.8C93.4559 282.232 95.5572 288.418 96.6878 294.786C97.8291 301.143 97.8931 308.044 94.7359 313.687Z" fill="#2F2E41"/>
<path d="M19.519 578.195L29.254 585.716L62.898 551.747L48.53 540.646L19.519 578.195Z" fill="#A0616A"/>
<path d="M19.9331 570.846L36.0311 581.818L30.9367 588.411L37.7594 609.819C38.0965 610.877 38.0868 612.014 37.7318 613.066C37.3767 614.117 36.6948 615.027 35.7856 615.664C34.8765 616.3 33.7877 616.629 32.6782 616.603C31.5687 616.577 30.4967 616.197 29.6186 615.518L11.2982 601.362L13.1796 592.401L6.90749 597.97L0 592.632L19.9331 570.846Z" fill="#2F2E41"/>
<path d="M68.9076 242.421C68.9062 246.225 69.8385 249.97 71.6226 253.329C73.4067 256.688 75.9882 259.558 79.1403 261.687C82.2924 263.815 85.9188 265.137 89.7012 265.537C93.4836 265.937 97.3064 265.402 100.834 263.98C104.361 262.557 107.486 260.29 109.933 257.379C112.38 254.467 114.074 250.999 114.868 247.279C115.662 243.559 115.53 239.702 114.485 236.045C113.44 232.388 111.513 229.043 108.874 226.305L108.762 226.193C108.576 225.998 108.39 225.803 108.195 225.617L108.192 225.616L108.189 225.614L108.187 225.611L108.186 225.607C107.944 225.384 107.703 225.161 107.452 224.948C103.362 221.36 97.6142 217.466 91.7494 217.466C78.9138 217.466 68.9076 229.585 68.9076 242.421Z" fill="#2F2E41"/>
<path d="M201.35 230.489C201.461 231.728 201.299 232.976 200.876 234.146C200.452 235.316 199.777 236.379 198.898 237.26C198.02 238.141 196.958 238.819 195.789 239.245C194.621 239.672 193.372 239.837 192.133 239.729L134.594 291.68L124.693 276.041L184.365 229.892C184.684 227.822 185.752 225.941 187.366 224.605C188.98 223.27 191.028 222.573 193.122 222.646C195.216 222.72 197.21 223.559 198.726 225.004C200.242 226.449 201.176 228.401 201.35 230.489Z" fill="#A0616A"/>
<path d="M110.003 307.361C110.003 307.361 112.144 311.315 119.457 305.209C125.311 300.322 153.36 279.102 159.402 270.407C160.782 270.953 162.305 271.025 163.73 270.612C165.155 270.198 166.402 269.321 167.275 268.121L150.718 253.621C145.765 254.191 145.871 257.519 146.387 259.408L133.898 265.067L101.649 285.676L108.405 304.53L110.003 307.361Z" fill="#E93B30"/>
<path d="M78.761 343.789L77.555 349.532L76.531 370.716L121.615 373.194L120.215 340.612L115.845 333.432L78.761 343.789Z" fill="#A0616A"/>
<path d="M97.8684 267.282C108.629 267.282 117.353 258.558 117.353 247.797C117.353 237.036 108.629 228.313 97.8684 228.313C87.1074 228.313 78.3839 237.036 78.3839 247.797C78.3839 258.558 87.1074 267.282 97.8684 267.282Z" fill="#A0616A"/>
<path d="M63.2759 319.665L63.1561 303.468C63.1534 297.641 65.1255 291.984 68.7507 287.421C72.376 282.859 77.4404 279.659 83.1179 278.344L83.1914 278.327L87.0442 273.136L102.697 274.702L105.567 280.566L116.909 287.319L121.276 301.358C123.17 302.621 124.785 304.259 126.019 306.172C127.253 308.085 128.081 310.231 128.45 312.477C129.933 321.947 123.302 331.423 122.513 332.51L120.481 343.955L76.2709 351.756L75.9119 351.801L63.2759 319.665Z" fill="#E93B30"/>
<path d="M121.711 244.323C119.438 245.763 117.08 247.063 114.65 248.217C112.183 249.402 109.603 250.334 106.949 251.001C106.19 249.334 105.26 247.751 104.176 246.275C104.455 248.024 104.462 249.805 104.197 251.555C99.7976 252.265 95.2917 251.895 91.0668 250.478L87.3976 244.324L87.1202 251.193C84.0804 251.747 81.0511 252.27 78.0112 252.814C77.8299 252.835 77.6486 252.878 77.4779 252.91C75.5899 244.398 78.2672 235.022 84.219 229.348C87.1741 226.56 90.8603 224.669 94.8485 223.895C98.8367 223.121 102.963 223.495 106.746 224.975C107.226 225.167 107.717 225.38 108.186 225.604L108.187 225.608L108.189 225.612L108.193 225.614L108.197 225.615C108.474 225.753 108.709 226.084 109.018 226.052C122.33 224.569 122.756 234.894 121.711 244.323Z" fill="#2F2E41"/>
<path d="M89.297 553.071L99.047 560.572L132.623 526.535L118.233 515.464L89.297 553.071Z" fill="#A0616A"/>
<path d="M90.5804 546.401L106.7 557.34L101.619 563.943L108.485 585.338C108.825 586.395 108.817 587.532 108.464 588.584C108.111 589.637 107.431 590.548 106.523 591.187C105.615 591.825 104.527 592.156 103.418 592.132C102.308 592.108 101.235 591.73 100.356 591.054L82.0071 576.935L83.8704 567.969L77.6095 573.551L70.6913 568.227L90.5804 546.401Z" fill="#2F2E41"/>
<path d="M57.6587 511.529L57.6582 511.402L62.2791 503.439L57.5606 493.074L57.4191 466.443L58.184 462.445C59.2127 457.068 58.9134 451.522 57.312 446.287L57.2258 430.077C57.06 426.016 63.3508 422.444 61.8838 419.059C48.0175 387.06 76.0434 362.649 76.2327 362.453L76.8054 361.858L79.9128 364.211L82.8704 364.215L122.782 371.488L123.07 372.025C124.64 374.969 127.67 385.119 127.849 389.711C129.839 392.014 152.496 418.233 154.511 420.054C168.121 432.369 175.914 452.753 179.348 463.807C180.201 466.539 180.372 469.438 179.848 472.252C179.325 475.065 178.121 477.708 176.342 479.95L124.815 536.389L110.949 523.589L138.829 472.784L136.819 467.629C133.212 466.964 129.947 465.067 127.582 462.263L121.936 455.562C120.373 453.712 119.38 451.448 119.077 449.045L115.653 448.633L103.389 435.757L94.8809 512.809L92.5677 518.896L52.284 566.254L35.2179 555.588L57.6587 511.529Z" fill="#2F2E41"/>
<path d="M51.5067 180.677C50.7327 181.651 50.1818 182.783 49.8928 183.993C49.6037 185.204 49.5835 186.462 49.8336 187.681C50.0838 188.9 50.5981 190.049 51.3404 191.048C52.0827 192.047 53.035 192.87 54.1301 193.461L41.3207 231.383L51.7802 271.571L68.6464 263.946L58.2386 233.633L66.0253 189.512C66.8958 187.606 67.0372 185.448 66.4225 183.445C65.8079 181.442 64.4799 179.734 62.6903 178.645C60.9007 177.556 58.7738 177.162 56.7126 177.536C54.6513 177.91 52.799 179.028 51.5067 180.677Z" fill="#A0616A"/>
<path d="M66.9451 304.683C66.9451 304.683 62.9838 306.81 60.2288 297.691C58.0232 290.39 43.0132 250.75 42.7428 240.165C41.2896 239.864 39.978 239.087 39.0146 237.958C38.0512 236.829 37.4908 235.412 37.4216 233.929L59.2218 230.913C63.0472 234.111 61.13 236.833 59.6608 238.128L67.0858 250.705L82.6051 284.658L69.8359 303.196L66.9451 304.683Z" fill="#E93B30"/>
<path d="M78.0068 252.812C80.2456 246.061 84.2599 240.036 89.6287 235.371C94.9975 230.705 101.523 227.57 108.521 226.295C108.548 226.286 108.641 226.249 108.762 226.193C108.836 226.146 108.929 226.1 109.022 226.054C108.744 225.896 108.474 225.756 108.195 225.617L108.192 225.616L108.189 225.614L108.187 225.611L108.186 225.607C107.944 225.384 107.703 225.161 107.452 224.947L106.745 224.975C106.745 224.975 81.9198 221.044 78.0068 252.812Z" fill="#FD6584"/>
<path d="M398.345 469.937C401.054 465.864 399.45 460.035 394.763 456.916C390.075 453.797 384.079 454.57 381.369 458.643C378.66 462.715 380.263 468.545 384.951 471.664C389.639 474.782 395.635 474.009 398.345 469.937Z" fill="#F2F2F2"/>
<path d="M343.345 317.937C346.054 313.864 344.45 308.035 339.763 304.916C335.075 301.797 329.079 302.57 326.369 306.643C323.66 310.715 325.263 316.545 329.951 319.664C334.639 322.782 340.635 322.009 343.345 317.937Z" fill="#F2F2F2"/>
<path d="M573.345 551.937C576.054 547.864 574.45 542.035 569.763 538.916C565.075 535.797 559.079 536.57 556.369 540.643C553.66 544.715 555.263 550.545 559.951 553.664C564.639 556.782 570.635 556.009 573.345 551.937Z" fill="#F2F2F2"/>
<path d="M108.345 62.9367C111.054 58.8643 109.45 53.0346 104.763 49.9159C100.075 46.7971 94.0785 47.5703 91.3691 51.6428C88.6597 55.7152 90.2634 61.5448 94.9511 64.6636C99.6388 67.7823 105.635 67.0092 108.345 62.9367Z" fill="#F2F2F2"/>
<path d="M325.345 14.9367C328.054 10.8642 326.45 5.03459 321.763 1.91585C317.075 -1.20289 311.079 -0.429757 308.369 3.64271C305.66 7.71517 307.263 13.5448 311.951 16.6636C316.639 19.7823 322.635 19.0091 325.345 14.9367Z" fill="#F2F2F2"/>
<path d="M222.644 417.651C225.354 413.579 223.75 407.749 219.062 404.63C214.375 401.512 208.378 402.285 205.669 406.357C202.959 410.43 204.563 416.259 209.251 419.378C213.938 422.497 219.935 421.724 222.644 417.651Z" fill="#E6E6E6"/>
<path d="M670.267 629.614H19.9732C19.658 629.613 19.3561 629.487 19.1335 629.264C18.911 629.041 18.786 628.739 18.786 628.423C18.786 628.108 18.911 627.806 19.1335 627.583C19.3561 627.359 19.658 627.234 19.9732 627.233H670.267C670.583 627.233 670.886 627.358 671.109 627.581C671.332 627.805 671.458 628.108 671.458 628.423C671.458 628.739 671.332 629.042 671.109 629.265C670.886 629.489 670.583 629.614 670.267 629.614Z" fill="#CCCCCC"/>
<path d="M141.009 234.162C135.538 234.146 130.266 232.115 126.199 228.456C122.132 224.798 119.556 219.769 118.964 214.331L106.268 96.4246C105.644 90.5705 107.368 84.708 111.062 80.1233C114.755 75.5387 120.116 72.6063 125.969 71.9695L502.923 31.3816C508.777 30.7576 514.64 32.4813 519.225 36.1746C523.81 39.8678 526.742 45.229 527.379 51.0818L540.074 168.988C540.698 174.842 538.974 180.705 535.281 185.29C531.587 189.875 526.226 192.807 520.373 193.444L143.419 234.032C142.618 234.118 141.814 234.162 141.009 234.162Z" fill="#E6E6E6"/>
<path d="M498.771 36.8553C498.063 36.8555 497.355 36.8937 496.651 36.9695L133.288 76.094C130.747 76.3676 128.285 77.1389 126.043 78.364C123.8 79.589 121.82 81.2438 120.217 83.2338C118.614 85.2238 117.419 87.5101 116.699 89.9622C115.98 92.4142 115.75 94.9839 116.024 97.5247L122.443 157.139C123.48 166.777 126.406 176.116 131.053 184.622C135.699 193.129 141.976 200.637 149.525 206.718C157.073 212.799 165.745 217.334 175.046 220.063C184.347 222.793 194.095 223.664 203.732 222.626L459.237 195.115C468.845 194.08 478.156 191.163 486.636 186.531C495.117 181.898 502.603 175.64 508.665 168.115C514.728 160.589 519.248 151.943 521.97 142.671C524.691 133.398 525.559 123.68 524.524 114.072L518.081 54.2336C517.568 49.4673 515.313 45.0582 511.75 41.8513C508.187 38.6444 503.565 36.8655 498.771 36.8553Z" fill="white"/>
<path d="M422.252 98.8971L219.164 120.764C218.583 120.828 217.996 120.776 217.435 120.612C216.874 120.448 216.351 120.175 215.896 119.809C215.441 119.443 215.063 118.991 214.782 118.478C214.502 117.966 214.326 117.403 214.263 116.822C214.201 116.241 214.253 115.654 214.418 115.093C214.583 114.533 214.856 114.011 215.223 113.556C215.59 113.101 216.043 112.723 216.555 112.444C217.068 112.164 217.631 111.989 218.212 111.927L421.301 90.0596C421.881 89.9963 422.469 90.0481 423.03 90.212C423.59 90.3759 424.113 90.6488 424.568 91.0149C425.023 91.3811 425.402 91.8333 425.682 92.3459C425.962 92.8584 426.139 93.4212 426.201 94.002C426.264 94.5827 426.211 95.1701 426.046 95.7306C425.882 96.291 425.608 96.8135 425.241 97.2682C424.875 97.7228 424.422 98.1007 423.909 98.3802C423.396 98.6597 422.833 98.8354 422.252 98.8971Z" fill="#E93B30"/>
<path d="M425.173 126.02L222.084 147.887C220.912 148.014 219.738 147.669 218.82 146.93C217.902 146.19 217.316 145.116 217.19 143.944C217.064 142.772 217.408 141.598 218.148 140.681C218.887 139.763 219.961 139.176 221.133 139.05L424.221 117.183C425.393 117.056 426.567 117.401 427.485 118.14C428.403 118.88 428.99 119.954 429.116 121.126C429.242 122.297 428.897 123.471 428.158 124.389C427.418 125.307 426.345 125.894 425.173 126.02Z" fill="#E93B30"/>
<path d="M248.672 172.461L225.005 175.009C223.833 175.136 222.659 174.791 221.741 174.052C220.823 173.312 220.236 172.238 220.11 171.066C219.984 169.895 220.328 168.72 221.068 167.803C221.807 166.885 222.881 166.298 224.053 166.172L247.72 163.624C248.301 163.56 248.888 163.612 249.449 163.776C250.009 163.94 250.532 164.213 250.987 164.579C251.443 164.945 251.821 165.397 252.101 165.91C252.381 166.422 252.558 166.985 252.62 167.566C252.683 168.147 252.63 168.734 252.466 169.295C252.301 169.855 252.028 170.377 251.661 170.832C251.294 171.287 250.841 171.665 250.328 171.944C249.815 172.224 249.252 172.399 248.672 172.461Z" fill="#E93B30"/>
<path d="M133.018 101.4C137.436 101.4 141.018 97.8179 141.018 93.3997C141.018 88.9814 137.436 85.3997 133.018 85.3997C128.6 85.3997 125.018 88.9814 125.018 93.3997C125.018 97.8179 128.6 101.4 133.018 101.4Z" fill="#3F3D56"/>
<path d="M491.018 61.3997C495.436 61.3997 499.018 57.8179 499.018 53.3997C499.018 48.9814 495.436 45.3997 491.018 45.3997C486.6 45.3997 483.018 48.9814 483.018 53.3997C483.018 57.8179 486.6 61.3997 491.018 61.3997Z" fill="#3F3D56"/>
<path d="M382.861 225.636C382.126 224.991 381.544 224.19 381.157 223.291C380.77 222.392 380.588 221.418 380.625 220.441C381.027 208.821 379.113 197.237 374.995 186.364C374.646 185.45 374.505 184.47 374.582 183.494C374.659 182.519 374.953 181.573 375.441 180.725C375.91 179.911 376.55 179.208 377.319 178.667C378.088 178.127 378.965 177.761 379.89 177.595C389.189 171.984 398.721 170.409 408.228 172.914C409.761 172.689 411.324 173.017 412.637 173.84C413.95 174.663 414.927 175.927 415.392 177.405C419.241 189.901 421.382 202.86 421.756 215.93C421.792 217.498 421.261 219.027 420.261 220.235C419.26 221.442 417.858 222.249 416.31 222.506L388.177 227.154C387.234 227.311 386.268 227.257 385.348 226.995C384.428 226.732 383.579 226.268 382.861 225.636Z" fill="#E93B30"/>
<path d="M385.36 191.781L409.039 187.869C409.234 187.837 409.42 187.767 409.588 187.663C409.756 187.559 409.901 187.423 410.016 187.263C410.131 187.103 410.214 186.922 410.258 186.729C410.303 186.537 410.31 186.338 410.278 186.144C410.246 185.949 410.175 185.763 410.071 185.595C409.967 185.428 409.83 185.283 409.67 185.168C409.509 185.053 409.328 184.971 409.136 184.927C408.944 184.882 408.744 184.876 408.55 184.909L384.871 188.821C384.479 188.886 384.129 189.105 383.898 189.428C383.667 189.751 383.574 190.153 383.639 190.545C383.704 190.937 383.921 191.287 384.244 191.519C384.566 191.75 384.968 191.845 385.36 191.781Z" fill="white"/>
<path d="M387.316 203.62L410.995 199.708C411.387 199.643 411.738 199.425 411.97 199.102C412.201 198.778 412.295 198.376 412.23 197.984C412.165 197.591 411.947 197.241 411.624 197.009C411.301 196.777 410.898 196.683 410.506 196.748L386.827 200.66C386.632 200.692 386.446 200.762 386.278 200.866C386.11 200.97 385.965 201.106 385.85 201.266C385.735 201.426 385.652 201.607 385.607 201.8C385.562 201.992 385.556 202.191 385.588 202.385C385.62 202.58 385.69 202.766 385.795 202.934C385.899 203.101 386.035 203.247 386.196 203.361C386.356 203.476 386.538 203.558 386.73 203.602C386.922 203.647 387.121 203.653 387.316 203.62Z" fill="white"/>
<path d="M389.272 215.46L412.951 211.548C413.343 211.483 413.694 211.265 413.926 210.941C414.157 210.618 414.251 210.216 414.186 209.823C414.121 209.431 413.903 209.08 413.58 208.848C413.257 208.617 412.854 208.523 412.462 208.588L388.783 212.5C388.589 212.532 388.402 212.602 388.235 212.706C388.068 212.81 387.923 212.946 387.808 213.106C387.693 213.266 387.611 213.448 387.567 213.639C387.522 213.831 387.515 214.03 387.547 214.224C387.58 214.419 387.65 214.605 387.754 214.772C387.858 214.939 387.994 215.085 388.154 215.199C388.314 215.314 388.495 215.396 388.687 215.441C388.879 215.485 389.077 215.492 389.272 215.46Z" fill="white"/>
</g>
<defs>
<clipPath id="clip0_34_2">
<rect width="731.077" height="629.614" fill="white"/>
</clipPath>
</defs>
</svg>
